name rise43.5482peak65.4966fall89.1036.mot
datacolumns 19
datarows 15
range 18.14158800000000 18.16494200000000
endheader
time	ground_force1_vx	ground_force1_vy	ground_force1_vz	ground_force1_px	ground_force1_py	ground_force1_pz	ground_force2_vx	ground_force2_vy	ground_force2_vz	ground_force2_px	ground_force2_py	ground_force2_pz	ground_torque1_x	ground_torque1_y	ground_torque1_z	ground_torque2_x	ground_torque2_y	ground_torque2_z	
18.14158800000000	60.78404000000000	778.75780399999996	50.13941400000000	0.30162000000000	0.00000000000000	0.08416600000000	0.00000000000000	0.00000000000000	0.00000000000000	0.00000000000000	0.00000000000000	0.00000000000000	0.00000000000000	19.48930600000000	0.00000000000000	0.00000000000000	0.00000000000000	0.00000000000000	
18.14325500000000	60.17796800000000	780.69503699999996	50.22666200000000	0.30086800000000	0.00000000000000	0.08414400000000	0.00000000000000	0.00000000000000	0.00000000000000	0.00000000000000	0.00000000000000	0.00000000000000	0.00000000000000	19.50856700000000	0.00000000000000	0.00000000000000	0.00000000000000	0.00000000000000	
18.14493100000000	59.57137400000000	782.50318000000004	50.30537800000000	0.30013600000000	0.00000000000000	0.08412200000000	0.00000000000000	0.00000000000000	0.00000000000000	0.00000000000000	0.00000000000000	0.00000000000000	0.00000000000000	19.52378400000000	0.00000000000000	0.00000000000000	0.00000000000000	0.00000000000000	
18.14659300000000	58.96434300000000	784.18212900000003	50.37531900000000	0.29942100000000	0.00000000000000	0.08409800000000	0.00000000000000	0.00000000000000	0.00000000000000	0.00000000000000	0.00000000000000	0.00000000000000	0.00000000000000	19.53478400000000	0.00000000000000	0.00000000000000	0.00000000000000	0.00000000000000	
18.14825800000000	58.35691100000000	785.73190299999999	50.43622400000000	0.29872200000000	0.00000000000000	0.08407500000000	0.00000000000000	0.00000000000000	0.00000000000000	0.00000000000000	0.00000000000000	0.00000000000000	0.00000000000000	19.54138800000000	0.00000000000000	0.00000000000000	0.00000000000000	0.00000000000000	
18.14992200000000	57.74906900000000	787.15264400000001	50.48782600000000	0.29803600000000	0.00000000000000	0.08405000000000	0.00000000000000	0.00000000000000	0.00000000000000	0.00000000000000	0.00000000000000	0.00000000000000	0.00000000000000	19.54341200000000	0.00000000000000	0.00000000000000	0.00000000000000	0.00000000000000	
18.15159300000000	57.14077000000000	788.44462699999997	50.52984800000000	0.29736100000000	0.00000000000000	0.08402500000000	0.00000000000000	0.00000000000000	0.00000000000000	0.00000000000000	0.00000000000000	0.00000000000000	0.00000000000000	19.54066900000000	0.00000000000000	0.00000000000000	0.00000000000000	0.00000000000000	
18.15325800000000	56.53193300000000	789.60826499999996	50.56201200000000	0.29669500000000	0.00000000000000	0.08399900000000	0.00000000000000	0.00000000000000	0.00000000000000	0.00000000000000	0.00000000000000	0.00000000000000	0.00000000000000	19.53296800000000	0.00000000000000	0.00000000000000	0.00000000000000	0.00000000000000	
18.15494500000000	55.92244600000000	790.64411099999995	50.58403700000000	0.29603400000000	0.00000000000000	0.08397300000000	0.00000000000000	0.00000000000000	0.00000000000000	0.00000000000000	0.00000000000000	0.00000000000000	0.00000000000000	19.52012400000000	0.00000000000000	0.00000000000000	0.00000000000000	0.00000000000000	
18.15659000000000	55.31217100000000	791.55286699999999	50.59564800000000	0.29537600000000	0.00000000000000	0.08394700000000	0.00000000000000	0.00000000000000	0.00000000000000	0.00000000000000	0.00000000000000	0.00000000000000	0.00000000000000	19.50195300000000	0.00000000000000	0.00000000000000	0.00000000000000	0.00000000000000	
18.15826400000000	54.70095000000000	792.33537899999999	50.59657600000000	0.29471900000000	0.00000000000000	0.08392100000000	0.00000000000000	0.00000000000000	0.00000000000000	0.00000000000000	0.00000000000000	0.00000000000000	0.00000000000000	19.47827600000000	0.00000000000000	0.00000000000000	0.00000000000000	0.00000000000000	
18.15993300000000	54.08860900000000	792.99265000000003	50.58656200000000	0.29406000000000	0.00000000000000	0.08389500000000	0.00000000000000	0.00000000000000	0.00000000000000	0.00000000000000	0.00000000000000	0.00000000000000	0.00000000000000	19.44892300000000	0.00000000000000	0.00000000000000	0.00000000000000	0.00000000000000	
18.16159500000000	53.47496200000000	793.52583100000004	50.56536000000000	0.29339700000000	0.00000000000000	0.08386800000000	0.00000000000000	0.00000000000000	0.00000000000000	0.00000000000000	0.00000000000000	0.00000000000000	0.00000000000000	19.41373300000000	0.00000000000000	0.00000000000000	0.00000000000000	0.00000000000000	
18.16326200000000	52.85981600000000	793.93623400000001	50.53274000000000	0.29272700000000	0.00000000000000	0.08384200000000	0.00000000000000	0.00000000000000	0.00000000000000	0.00000000000000	0.00000000000000	0.00000000000000	0.00000000000000	19.37255900000000	0.00000000000000	0.00000000000000	0.00000000000000	0.00000000000000	
18.16494200000000	52.24297800000000	794.22532300000000	50.48849300000000	0.29204900000000	0.00000000000000	0.08381600000000	0.00000000000000	0.00000000000000	0.00000000000000	0.00000000000000	0.00000000000000	0.00000000000000	0.00000000000000	19.32526400000000	0.00000000000000	0.00000000000000	0.00000000000000	0.00000000000000	
